<svg preserveAspectRatio="none" width="100%" height="100%" overflow="visible" style="display: block;" viewBox="0 0 18 18" fill="none" xmlns="http://www.w3.org/2000/svg">
<g id="Frame 1321317559" filter="url(#filter0_d_0_488)">
<rect x="1" width="16" height="16" rx="8" fill="var(--fill-0, #EFEFEF)" shape-rendering="crispEdges"/>
<rect x="1.2" y="0.2" width="15.6" height="15.6" rx="7.8" stroke="var(--stroke-0, white)" stroke-width="0.4" shape-rendering="crispEdges"/>
<g id="...">
<path d="M6.07031 8.6C5.90365 8.6 5.76031 8.54333 5.64031 8.43C5.52698 8.31 5.47031 8.16667 5.47031 8C5.47031 7.83333 5.52698 7.69333 5.64031 7.58C5.76031 7.46 5.90365 7.4 6.07031 7.4C6.23698 7.4 6.37698 7.46 6.49031 7.58C6.61031 7.69333 6.67031 7.83333 6.67031 8C6.67031 8.16667 6.61031 8.31 6.49031 8.43C6.37698 8.54333 6.23698 8.6 6.07031 8.6Z" fill="var(--fill-0, #798486)"/>
<path d="M9 8.6C8.83333 8.6 8.69 8.54333 8.57 8.43C8.45667 8.31 8.4 8.16667 8.4 8C8.4 7.83333 8.45667 7.69333 8.57 7.58C8.69 7.46 8.83333 7.4 9 7.4C9.16667 7.4 9.30667 7.46 9.42 7.58C9.54 7.69333 9.6 7.83333 9.6 8C9.6 8.16667 9.54 8.31 9.42 8.43C9.30667 8.54333 9.16667 8.6 9 8.6Z" fill="var(--fill-0, #798486)"/>
<path d="M11.9297 8.6C11.763 8.6 11.6197 8.54333 11.4997 8.43C11.3864 8.31 11.3297 8.16667 11.3297 8C11.3297 7.83333 11.3864 7.69333 11.4997 7.58C11.6197 7.46 11.763 7.4 11.9297 7.4C12.0964 7.4 12.2364 7.46 12.3497 7.58C12.4697 7.69333 12.5297 7.83333 12.5297 8C12.5297 8.16667 12.4697 8.31 12.3497 8.43C12.2364 8.54333 12.0964 8.6 11.9297 8.6Z" fill="var(--fill-0, #798486)"/>
</g>
</g>
<defs>
<filter id="filter0_d_0_488" x="0" y="0" width="18" height="18" filterUnits="userSpaceOnUse" color-interpolation-filters="sRGB">
<feFlood flood-opacity="0" result="BackgroundImageFix"/>
<feColorMatrix in="SourceAlpha" type="matrix" values="0 0 0 0 0 0 0 0 0 0 0 0 0 0 0 0 0 0 127 0" result="hardAlpha"/>
<feOffset dy="1"/>
<feGaussianBlur stdDeviation="0.5"/>
<feComposite in2="hardAlpha" operator="out"/>
<feColorMatrix type="matrix" values="0 0 0 0 0 0 0 0 0 0 0 0 0 0 0 0 0 0 0.14 0"/>
<feBlend mode="normal" in2="BackgroundImageFix" result="effect1_dropShadow_0_488"/>
<feBlend mode="normal" in="SourceGraphic" in2="effect1_dropShadow_0_488" result="shape"/>
</filter>
</defs>
</svg>
